<svg viewBox="0 0 37 143" fill="none" xmlns="http://www.w3.org/2000/svg">
    <path id="cableDraw" d="M2.87506 1C0.375023 1 0.374938 4 2.87506 4C5.37518 4 5.37528 7 2.87506 7C0.374842 7 0.37518 10 2.87506 10C5.37494 10 5.37502 13 2.87506 13C0.375095 13 0.375023 16 2.87506 16C5.3751 16 5.37502 19 2.87506 19C0.375095 19 0.375023 22 2.87506 22C5.3751 22 5.37502 25 2.87506 25C0.375095 25 0.375023 28 2.87506 28C5.3751 28 5.37502 31 2.87506 31C0.375095 31 0.375023 34 2.87506 34C5.3751 34 5.37502 37 2.87506 37C0.375095 37 0.375023 40 2.87506 40C5.3751 40 5.37502 43 2.87506 43C0.375095 43 0.375023 46 2.87506 46C5.3751 46 5.37502 49 2.87506 49C0.375095 49 0.375023 52 2.87506 52C5.3751 52 5.37502 55 2.87506 55C0.375095 55 0.375023 58 2.87506 58C5.3751 58 5.37502 61 2.87506 61C0.375095 61 0.375023 64 2.87506 64C5.3751 64 5.37502 67 2.87506 67C0.375095 67 0.375023 70 2.87506 70C5.3751 70 5.37502 73 2.87506 73C0.375095 73 0.375023 76 2.87506 76C5.3751 76 5.37502 79 2.87506 79C0.375095 79 0.375023 82 2.87506 82C5.3751 82 5.37502 85 2.87506 85C0.375095 85 0.375023 88 2.87506 88C5.3751 88 5.37502 91 2.87506 91C0.375095 91 0.375023 94 2.87506 94C5.3751 94 5.37502 97 2.87506 97C0.375095 97 0.375023 100 2.87506 100C5.3751 100 5.37502 103 2.87506 103C0.375095 103 0.375023 106 2.87506 106C5.3751 106 5.37502 109 2.87506 109C0.375095 109 0.375023 112 2.87506 112C5.3751 112 5.37502 115 2.87506 115C0.375095 115 0.375023 118 2.87506 118C5.3751 118 5.37502 121 2.87506 121C0.375095 121 0.375023 124 2.87506 124C5.3751 124 5.3751 127 2.87506 127C0.375023 127 0.375023 130 2.87506 130C5.3751 130 5.37502 133 2.87506 133C0.375095 133 0.375023 136 2.87506 136C5.3751 136 5.37502 139 2.87506 139C0.375095 139 0.499964 142.5 3 142.5H9H32.5H37" stroke="currentColor" stroke-width="2"/>
</svg>
    