<svg viewBox="0 0 119 119" fill="none" xmlns="http://www.w3.org/2000/svg">
    <path d="M104.794 62.392C104.841 61.7778 104.983 61.2352 105.22 60.764C105.457 60.2929 105.783 59.9249 106.196 59.66C106.609 59.403 107.092 59.2878 107.643 59.3144L107.475 61.4919C107.161 61.4998 106.914 61.589 106.732 61.7595C106.558 61.9306 106.46 62.1637 106.437 62.4589C106.414 62.7619 106.463 63.0065 106.585 63.1924C106.715 63.379 106.904 63.4819 107.151 63.501C107.358 63.517 107.535 63.4585 107.682 63.3254C107.828 63.2003 107.953 63.0374 108.057 62.8368C108.16 62.6442 108.282 62.3647 108.423 61.9985C108.632 61.4691 108.834 61.0393 109.028 60.7093C109.222 60.3793 109.492 60.1033 109.838 59.8813C110.184 59.6593 110.62 59.5687 111.147 59.6093C111.929 59.6698 112.517 60.0001 112.912 60.6003C113.315 61.2011 113.481 61.9562 113.411 62.8655C113.339 63.7907 113.058 64.5193 112.568 65.051C112.085 65.5834 111.448 65.8391 110.655 65.8179L110.826 63.6045C111.098 63.6095 111.318 63.5261 111.483 63.3544C111.657 63.1833 111.755 62.9542 111.777 62.667C111.796 62.4197 111.744 62.2151 111.62 62.0531C111.504 61.8917 111.322 61.8014 111.075 61.7823C110.804 61.7613 110.583 61.8726 110.411 62.1161C110.24 62.3596 110.046 62.7458 109.828 63.2746C109.603 63.8028 109.394 64.228 109.2 64.55C109.006 64.88 108.74 65.1564 108.402 65.379C108.064 65.6016 107.644 65.6934 107.141 65.6546C106.662 65.6176 106.237 65.4604 105.866 65.1829C105.493 64.9134 105.209 64.5384 105.014 64.0579C104.818 63.5774 104.745 63.0221 104.794 62.392Z" fill="currentColor"/>
    <path d="M108.741 67.3785C109.545 67.59 110.215 67.9522 110.751 68.4651C111.293 68.98 111.658 69.5928 111.843 70.3033C112.034 71.0235 112.026 71.7783 111.819 72.5674C111.564 73.5346 111.092 74.2953 110.4 74.8497C109.708 75.4041 108.891 75.6814 107.948 75.6817L108.521 73.4998C108.904 73.4268 109.225 73.2628 109.482 73.0078C109.737 72.7606 109.915 72.4474 110.014 72.0683C110.175 71.4571 110.092 70.906 109.766 70.415C109.441 69.924 108.922 69.585 108.21 69.3979C107.498 69.2107 106.88 69.2508 106.354 69.5181C105.829 69.7853 105.486 70.2246 105.326 70.8358C105.226 71.2149 105.226 71.5749 105.327 71.9157C105.426 72.2642 105.624 72.5645 105.922 72.8164L105.348 74.9983C104.527 74.5343 103.952 73.8909 103.622 73.0681C103.3 72.2473 103.266 71.3533 103.521 70.3862C103.728 69.597 104.088 68.9348 104.601 68.3996C105.12 67.8742 105.738 67.5198 106.456 67.3363C107.175 67.1529 107.936 67.1669 108.741 67.3785Z" fill="currentColor"/>
    <path d="M100.225 79.4636L103.847 79.2235L104.056 78.7779L101.175 77.4308L102.045 75.572L109.675 79.1404L108.217 82.2601C107.935 82.8616 107.591 83.3234 107.185 83.6454C106.774 83.9747 106.336 84.158 105.868 84.1953C105.407 84.2361 104.952 84.1514 104.503 83.9413C103.996 83.7041 103.61 83.3473 103.347 82.8711C103.081 82.4021 102.995 81.8496 103.089 81.2136L99.2437 81.5615L100.225 79.4636ZM105.371 79.3929L104.832 80.5452C104.673 80.8858 104.638 81.1784 104.727 81.423C104.812 81.6748 105.007 81.8719 105.311 82.0143C105.601 82.1498 105.87 82.1696 106.118 82.0736C106.363 81.9849 106.565 81.7702 106.724 81.4296L107.263 80.2774L105.371 79.3929Z" fill="currentColor"/>
    <path d="M96.5631 85.4136C97.022 84.7681 97.5937 84.2813 98.2784 83.9533C98.9584 83.6318 99.6793 83.5013 100.441 83.5619C101.205 83.6336 101.922 83.9081 102.594 84.3855C103.266 84.8629 103.758 85.4481 104.07 86.1411C104.377 86.8407 104.491 87.5644 104.411 88.3123C104.326 89.0667 104.054 89.7667 103.596 90.4122C103.137 91.0578 102.567 91.5413 101.887 91.8628C101.203 92.1908 100.484 92.318 99.7316 92.2444C98.9745 92.1774 98.2601 91.9051 97.5884 91.4278C96.9168 90.9504 96.4216 90.3628 96.1029 89.6652C95.7907 88.9721 95.6746 88.2517 95.7547 87.5038C95.8348 86.7559 96.1043 86.0592 96.5631 85.4136ZM98.089 86.4982C97.6996 87.0459 97.5717 87.6125 97.7051 88.1981C97.8339 88.7902 98.1982 89.2995 98.7981 89.7259C99.4045 90.1569 100.005 90.3336 100.6 90.256C101.197 90.1895 101.69 89.8824 102.08 89.3347C102.474 88.7804 102.609 88.2095 102.487 87.6221C102.36 87.0411 101.99 86.5328 101.377 86.0971C100.771 85.6661 100.169 85.4838 99.5724 85.5503C98.9774 85.628 98.4829 85.9439 98.089 86.4982Z" fill="currentColor"/>
    <path d="M92.9906 92.2997L91.1037 94.2142L89.9755 93.1023L93.3028 89.7263L99.3026 95.6396L97.8622 97.101L92.9906 92.2997Z" fill="currentColor"/>
    <path d="M88.7499 96.1401L86.6474 97.8149L85.6605 96.5759L89.3679 93.6226L94.6167 100.212L93.0117 101.49L88.7499 96.1401Z" fill="currentColor"/>
    <path d="M62.3925 13.3373C61.7783 13.2899 61.2356 13.1476 60.7645 12.9106C60.2934 12.6736 59.9253 12.3483 59.6604 11.9346C59.4035 11.5216 59.2883 11.0393 59.3149 10.4877L61.4924 10.656C61.5003 10.9695 61.5895 11.2171 61.76 11.3988C61.9311 11.5725 62.1642 11.6708 62.4593 11.6936C62.7624 11.717 63.007 11.6677 63.1929 11.5457C63.3795 11.4157 63.4823 11.2271 63.5015 10.9798C63.5175 10.7724 63.459 10.5954 63.3259 10.4487C63.2007 10.3026 63.0379 10.1777 62.8373 10.0739C62.6447 9.97076 62.3652 9.84886 61.999 9.70821C61.4695 9.49879 61.0398 9.29707 60.7098 9.10306C60.3798 8.90904 60.1038 8.63897 59.8818 8.29283C59.6598 7.94669 59.5691 7.51041 59.6098 6.98398C59.6703 6.20231 60.0006 5.61402 60.6008 5.2191C61.2016 4.81621 61.9567 4.64991 62.866 4.7202C63.7912 4.79172 64.5197 5.0727 65.0515 5.56314C65.5839 6.04561 65.8395 6.68321 65.8184 7.47593L63.605 7.30484C63.61 7.03242 63.5266 6.81334 63.3549 6.64761C63.1838 6.47391 62.9546 6.37595 62.6675 6.35376C62.4202 6.33465 62.2156 6.38703 62.0536 6.51091C61.8921 6.62681 61.8019 6.8084 61.7828 7.05566C61.7618 7.32685 61.8731 7.54809 62.1166 7.71936C62.3601 7.89064 62.7463 8.08498 63.2751 8.30238C63.8033 8.52776 64.2285 8.73715 64.5505 8.93055C64.8805 9.12456 65.1569 9.39065 65.3795 9.72881C65.6021 10.067 65.6939 10.4873 65.6551 10.9898C65.6181 11.4684 65.4609 11.8935 65.1834 12.2652C64.9139 12.6376 64.5389 12.9215 64.0584 13.1171C63.5779 13.3126 63.0226 13.386 62.3925 13.3373Z" fill="currentColor"/>
    <path d="M67.3785 9.39009C67.59 8.58543 67.9522 7.9155 68.4651 7.38031C68.98 6.83739 69.5928 6.47319 70.3033 6.28773C71.0235 6.09656 71.7783 6.10469 72.5674 6.31214C73.5346 6.56637 74.2953 7.03932 74.8497 7.73098C75.4041 8.42264 75.6814 9.24 75.6817 10.183L73.4998 9.60951C73.4268 9.22636 73.2628 8.90616 73.0078 8.64888C72.7606 8.39364 72.4474 8.21619 72.0683 8.11654C71.4571 7.95587 70.906 8.03847 70.415 8.36436C69.924 8.69025 69.585 9.2091 69.3979 9.92092C69.2107 10.6327 69.2508 11.2512 69.5181 11.7764C69.7853 12.3016 70.2246 12.6446 70.8358 12.8053C71.2149 12.9049 71.5749 12.9044 71.9157 12.8037C72.2642 12.7051 72.5645 12.5069 72.8164 12.2092L74.9983 12.7827C74.5343 13.6038 73.8909 14.1791 73.0681 14.5087C72.2473 14.8306 71.3533 14.8645 70.3862 14.6102C69.597 14.4028 68.9348 14.0426 68.3996 13.5297C67.8742 13.0111 67.5198 12.3927 67.3363 11.6744C67.1529 10.9562 67.1669 10.1948 67.3785 9.39009Z" fill="currentColor"/>
    <path d="M79.4631 17.9056L79.223 14.2829L78.7774 14.0745L77.4303 16.9551L75.5715 16.0859L79.1399 8.45496L82.2596 9.91382C82.8611 10.1951 83.3229 10.5391 83.6449 10.9458C83.9742 11.3559 84.1575 11.7948 84.1949 12.2627C84.2356 12.7233 84.1509 13.1783 83.9408 13.6276C83.7036 14.1349 83.3468 14.52 82.8706 14.783C82.4016 15.0495 81.8491 15.1355 81.2132 15.0413L81.561 18.8867L79.4631 17.9056ZM79.3924 12.7592L80.5447 13.298C80.8853 13.4573 81.1779 13.4925 81.4225 13.4038C81.6744 13.3184 81.8715 13.1236 82.0138 12.8192C82.1493 12.5293 82.1691 12.2604 82.0731 12.0124C81.9844 11.7678 81.7697 11.5658 81.4291 11.4066L80.2769 10.8677L79.3924 12.7592Z" fill="currentColor"/>
    <path d="M85.4141 21.5672C84.7686 21.1084 84.2818 20.5366 83.9538 19.852C83.6323 19.172 83.5018 18.4511 83.5623 17.6893C83.634 16.9256 83.9086 16.208 84.386 15.5363C84.8634 14.8647 85.4486 14.3728 86.1416 14.0606C86.8412 13.753 87.5649 13.6393 88.3128 13.7194C89.0672 13.8041 89.7672 14.0759 90.4127 14.5347C91.0583 14.9936 91.5418 15.563 91.8633 16.243C92.1913 16.9276 92.3185 17.6462 92.2449 18.3988C92.1779 19.1559 91.9056 19.8703 91.4283 20.5419C90.9509 21.2136 90.3633 21.7087 89.6657 22.0275C88.9726 22.3397 88.2521 22.4558 87.5043 22.3757C86.7564 22.2956 86.0596 22.0261 85.4141 21.5672ZM86.4986 20.0414C87.0464 20.4307 87.613 20.5587 88.1986 20.4253C88.7907 20.2965 89.3 19.9321 89.7264 19.3323C90.1574 18.7258 90.3341 18.1251 90.2565 17.5301C90.19 16.9332 89.8829 16.4401 89.3351 16.0508C88.7809 15.6568 88.21 15.521 87.6226 15.6432C87.0416 15.7701 86.5333 16.14 86.0976 16.753C85.6666 17.3594 85.4843 17.9611 85.5508 18.558C85.6284 19.153 85.9444 19.6474 86.4986 20.0414Z" fill="currentColor"/>
    <path d="M92.3002 25.1398L94.2147 27.0267L93.1028 28.1548L89.7268 24.8276L95.64 18.8278L97.1015 20.2682L92.3002 25.1398Z" fill="currentColor"/>
    <path d="M96.1401 29.381L97.8149 31.4834L96.5759 32.4704L93.6226 28.7629L100.212 23.5142L101.49 25.1192L96.1401 29.381Z" fill="currentColor"/>
    <path d="M13.3373 55.608C13.2899 56.2222 13.1476 56.7648 12.9106 57.236C12.6736 57.7071 12.3483 58.0751 11.9346 58.34C11.5216 58.597 11.0393 58.7122 10.4877 58.6856L10.656 56.5081C10.9695 56.5002 11.2171 56.411 11.3988 56.2405C11.5725 56.0694 11.6708 55.8363 11.6936 55.5411C11.717 55.2381 11.6677 54.9935 11.5457 54.8076C11.4157 54.621 11.2271 54.5181 10.9798 54.499C10.7724 54.483 10.5954 54.5415 10.4487 54.6746C10.3026 54.7997 10.1777 54.9626 10.0739 55.1632C9.97076 55.3558 9.84886 55.6353 9.70821 56.0015C9.49879 56.5309 9.29707 56.9607 9.10306 57.2907C8.90904 57.6207 8.63897 57.8967 8.29283 58.1187C7.94669 58.3407 7.51041 58.4313 6.98398 58.3907C6.20231 58.3302 5.61402 57.9999 5.2191 57.3997C4.81621 56.7989 4.64991 56.0438 4.7202 55.1345C4.79172 54.2093 5.0727 53.4807 5.56314 52.949C6.04561 52.4166 6.68321 52.1609 7.47593 52.1821L7.30484 54.3955C7.03242 54.3905 6.81334 54.4739 6.64761 54.6456C6.47391 54.8167 6.37595 55.0458 6.35376 55.333C6.33465 55.5803 6.38703 55.7849 6.51091 55.9469C6.62681 56.1083 6.8084 56.1986 7.05566 56.2177C7.32685 56.2387 7.54809 56.1274 7.71936 55.8839C7.89064 55.6404 8.08498 55.2542 8.30238 54.7254C8.52776 54.1972 8.73715 53.772 8.93055 53.45C9.12456 53.12 9.39065 52.8436 9.72881 52.621C10.067 52.3984 10.4873 52.3066 10.9898 52.3454C11.4684 52.3824 11.8935 52.5396 12.2652 52.8171C12.6376 53.0866 12.9215 53.4616 13.1171 53.9421C13.3126 54.4226 13.386 54.9779 13.3373 55.608Z" fill="currentColor"/>
    <path d="M9.39009 50.6215C8.58543 50.41 7.9155 50.0478 7.38031 49.5349C6.83739 49.02 6.47319 48.4072 6.28773 47.6967C6.09656 46.9765 6.10469 46.2217 6.31214 45.4326C6.56637 44.4654 7.03932 43.7047 7.73098 43.1503C8.42264 42.5959 9.24 42.3186 10.183 42.3183L9.60951 44.5002C9.22636 44.5732 8.90616 44.7372 8.64888 44.9922C8.39364 45.2394 8.21619 45.5526 8.11654 45.9317C7.95587 46.5429 8.03847 47.094 8.36436 47.585C8.69025 48.076 9.2091 48.415 9.92092 48.6021C10.6327 48.7893 11.2512 48.7492 11.7764 48.4819C12.3016 48.2147 12.6446 47.7754 12.8053 47.1642C12.9049 46.7851 12.9044 46.4251 12.8037 46.0843C12.7051 45.7358 12.5069 45.4355 12.2092 45.1836L12.7827 43.0017C13.6038 43.4657 14.1791 44.1091 14.5087 44.9319C14.8306 45.7527 14.8645 46.6467 14.6102 47.6138C14.4028 48.403 14.0426 49.0652 13.5297 49.6004C13.0111 50.1258 12.3927 50.4802 11.6744 50.6637C10.9562 50.8471 10.1948 50.8331 9.39009 50.6215Z" fill="currentColor"/>
    <path d="M17.9061 38.5364L14.2834 38.7765L14.075 39.2221L16.9556 40.5692L16.0863 42.428L8.45545 38.8596L9.91431 35.7399C10.1956 35.1384 10.5396 34.6766 10.9463 34.3546C11.3564 34.0253 11.7953 33.842 12.2632 33.8047C12.7238 33.7639 13.1788 33.8486 13.6281 34.0587C14.1354 34.2959 14.5205 34.6527 14.7835 35.1289C15.0499 35.5979 15.136 36.1504 15.0418 36.7864L18.8872 36.4385L17.9061 38.5364ZM12.7597 38.6071L13.2985 37.4548C13.4577 37.1142 13.493 36.8216 13.4043 36.577C13.3189 36.3252 13.1241 36.1281 12.8197 35.9857C12.5298 35.8502 12.2609 35.8304 12.0129 35.9264C11.7683 36.0151 11.5663 36.2298 11.407 36.5704L10.8682 37.7226L12.7597 38.6071Z" fill="currentColor"/>
    <path d="M21.5677 32.5864C21.1089 33.2319 20.5371 33.7187 19.8525 34.0467C19.1725 34.3682 18.4516 34.4987 17.6898 34.4381C16.9261 34.3664 16.2085 34.0919 15.5368 33.6145C14.8652 33.1371 14.3733 32.5519 14.0611 31.8589C13.7535 31.1593 13.6397 30.4356 13.7198 29.6877C13.8046 28.9333 14.0764 28.2333 14.5352 27.5878C14.9941 26.9422 15.5635 26.4587 16.2435 26.1372C16.9281 25.8092 17.6467 25.682 18.3992 25.7556C19.1564 25.8226 19.8708 26.0949 20.5424 26.5722C21.214 27.0496 21.7092 27.6372 22.028 28.3348C22.3402 29.0279 22.4563 29.7483 22.3761 30.4962C22.296 31.2441 22.0266 31.9408 21.5677 32.5864ZM20.0419 31.5018C20.4312 30.9541 20.5592 30.3875 20.4258 29.8019C20.297 29.2098 19.9326 28.7005 19.3327 28.2741C18.7263 27.8431 18.1256 27.6664 17.5306 27.744C16.9337 27.8105 16.4406 28.1176 16.0513 28.6653C15.6573 29.2196 15.5215 29.7905 15.6437 30.3779C15.7706 30.9589 16.1405 31.4672 16.7535 31.9029C17.3599 32.3339 17.9615 32.5162 18.5584 32.4497C19.1535 32.372 19.6479 32.0561 20.0419 31.5018Z" fill="currentColor"/>
    <path d="M25.1393 25.7003L27.0262 23.7858L28.1543 24.8977L24.8271 28.2737L18.8273 22.3604L20.2677 20.899L25.1393 25.7003Z" fill="currentColor"/>
    <path d="M29.381 21.8599L31.4834 20.1851L32.4704 21.4241L28.7629 24.3774L23.5142 17.7885L25.1192 16.5099L29.381 21.8599Z" fill="currentColor"/>
    <path d="M55.6075 104.793C56.2217 104.841 56.7644 104.983 57.2355 105.22C57.7066 105.457 58.0747 105.782 58.3396 106.196C58.5965 106.609 58.7117 107.091 58.6851 107.643L56.5076 107.474C56.4997 107.161 56.4105 106.913 56.24 106.732C56.0689 106.558 55.8358 106.46 55.5407 106.437C55.2376 106.413 54.993 106.463 54.8071 106.585C54.6205 106.715 54.5177 106.903 54.4985 107.151C54.4825 107.358 54.541 107.535 54.6741 107.682C54.7993 107.828 54.9621 107.953 55.1627 108.056C55.3553 108.16 55.6348 108.282 56.001 108.422C56.5305 108.632 56.9602 108.833 57.2902 109.027C57.6202 109.221 57.8962 109.491 58.1182 109.838C58.3402 110.184 58.4309 110.62 58.3902 111.146C58.3297 111.928 57.9994 112.516 57.3992 112.911C56.7984 113.314 56.0433 113.48 55.134 113.41C54.2088 113.339 53.4803 113.058 52.9485 112.567C52.4161 112.085 52.1605 111.447 52.1816 110.654L54.395 110.826C54.39 111.098 54.4734 111.317 54.6451 111.483C54.8162 111.656 55.0454 111.754 55.3325 111.777C55.5798 111.796 55.7844 111.743 55.9464 111.619C56.1079 111.504 56.1981 111.322 56.2172 111.075C56.2382 110.804 56.1269 110.582 55.8834 110.411C55.6399 110.24 55.2537 110.045 54.7249 109.828C54.1967 109.603 53.7715 109.393 53.4495 109.2C53.1195 109.006 52.8431 108.74 52.6205 108.402C52.3979 108.063 52.3061 107.643 52.3449 107.141C52.3819 106.662 52.5391 106.237 52.8166 105.865C53.0861 105.493 53.4611 105.209 53.9416 105.013C54.4221 104.818 54.9774 104.744 55.6075 104.793Z" fill="currentColor"/>
    <path d="M50.6215 108.74C50.41 109.545 50.0478 110.215 49.5349 110.75C49.02 111.293 48.4072 111.657 47.6967 111.843C46.9765 112.034 46.2217 112.026 45.4326 111.818C44.4654 111.564 43.7047 111.091 43.1503 110.399C42.5959 109.708 42.3186 108.89 42.3183 107.947L44.5002 108.521C44.5732 108.904 44.7372 109.224 44.9922 109.481C45.2394 109.737 45.5526 109.914 45.9317 110.014C46.5429 110.175 47.094 110.092 47.585 109.766C48.076 109.44 48.415 108.921 48.6021 108.209C48.7893 107.498 48.7492 106.879 48.4819 106.354C48.2147 105.829 47.7754 105.486 47.1642 105.325C46.7851 105.225 46.4251 105.226 46.0843 105.327C45.7358 105.425 45.4355 105.623 45.1836 105.921L43.0017 105.348C43.4657 104.527 44.1091 103.951 44.9319 103.622C45.7527 103.3 46.6467 103.266 47.6138 103.52C48.403 103.728 49.0652 104.088 49.6004 104.601C50.1258 105.119 50.4802 105.738 50.6637 106.456C50.8471 107.174 50.8331 107.936 50.6215 108.74Z" fill="currentColor"/>
    <path d="M38.5369 100.225L38.777 103.847L39.2226 104.056L40.5697 101.175L42.4285 102.045L38.8601 109.675L35.7404 108.217C35.1389 107.935 34.6771 107.591 34.3551 107.185C34.0258 106.774 33.8425 106.336 33.8051 105.868C33.7644 105.407 33.8491 104.952 34.0592 104.503C34.2964 103.996 34.6532 103.61 35.1294 103.347C35.5984 103.081 36.1509 102.995 36.7868 103.089L36.439 99.2437L38.5369 100.225ZM38.6076 105.371L37.4553 104.832C37.1147 104.673 36.8221 104.638 36.5775 104.727C36.3256 104.812 36.1285 105.007 35.9862 105.311C35.8507 105.601 35.8309 105.87 35.9269 106.118C36.0156 106.363 36.2303 106.565 36.5709 106.724L37.7231 107.263L38.6076 105.371Z" fill="currentColor"/>
    <path d="M32.5859 96.5631C33.2314 97.022 33.7182 97.5937 34.0462 98.2784C34.3677 98.9584 34.4982 99.6793 34.4377 100.441C34.366 101.205 34.0914 101.922 33.614 102.594C33.1366 103.266 32.5514 103.758 31.8584 104.07C31.1588 104.377 30.4351 104.491 29.6872 104.411C28.9328 104.326 28.2328 104.054 27.5873 103.596C26.9417 103.137 26.4582 102.567 26.1367 101.887C25.8087 101.203 25.6815 100.484 25.7551 99.7316C25.8221 98.9745 26.0944 98.2601 26.5717 97.5884C27.0491 96.9168 27.6367 96.4216 28.3343 96.1029C29.0274 95.7907 29.7479 95.6746 30.4957 95.7547C31.2436 95.8348 31.9404 96.1043 32.5859 96.5631ZM31.5014 98.089C30.9536 97.6996 30.387 97.5717 29.8014 97.7051C29.2093 97.8339 28.7 98.1982 28.2736 98.7981C27.8426 99.4045 27.6659 100.005 27.7435 100.6C27.81 101.197 28.1171 101.69 28.6649 102.08C29.2191 102.474 29.79 102.609 30.3774 102.487C30.9584 102.36 31.4667 101.99 31.9024 101.377C32.3334 100.771 32.5157 100.169 32.4492 99.5724C32.3716 98.9774 32.0556 98.4829 31.5014 98.089Z" fill="currentColor"/>
    <path d="M25.6998 92.9906L23.7853 91.1037L24.8972 89.9755L28.2732 93.3028L22.36 99.3026L20.8985 97.8622L25.6998 92.9906Z" fill="currentColor"/>
    <path d="M21.8599 88.7499L20.1851 86.6474L21.4241 85.6605L24.3774 89.3679L17.7885 94.6167L16.5099 93.0117L21.8599 88.7499Z" fill="currentColor"/>
</svg>
    