<svg  viewBox="0 0 20 20" fill="currentColor" xmlns="http://www.w3.org/2000/svg">
    <g clip-path="url(#clip0_2059_77)">
    <path d="M15.8909 0.273926H4.11003C1.99168 0.273926 0.274414 1.99119 0.274414 4.10954V15.8904C0.274414 18.0087 1.99168 19.726 4.11003 19.726H15.8909C18.0092 19.726 19.7265 18.0087 19.7265 15.8904V4.10954C19.7265 1.99119 18.0092 0.273926 15.8909 0.273926Z"  stroke-width="21.9178"/>
    <path d="M16.5229 6.4187C15.8624 5.28693 14.9664 4.39091 13.8347 3.73043C12.7029 3.06992 11.4672 2.73975 10.1269 2.73975C8.78682 2.73975 7.55079 3.07002 6.41919 3.73043C5.28742 4.39088 4.39146 5.28693 3.73092 6.4187C3.07047 7.55043 2.74023 8.7863 2.74023 10.1263C2.74023 11.7358 3.20984 13.1832 4.14928 14.4688C5.08863 15.7544 6.30212 16.6441 7.78967 17.1378C7.96282 17.1699 8.091 17.1473 8.17434 17.0705C8.25772 16.9936 8.29936 16.8974 8.29936 16.7821C8.29936 16.7628 8.29771 16.5898 8.29451 16.2627C8.29121 15.9356 8.28966 15.6503 8.28966 15.4068L8.06843 15.4451C7.92738 15.471 7.74944 15.4819 7.53462 15.4788C7.31989 15.4758 7.09698 15.4533 6.86619 15.4115C6.63529 15.37 6.42054 15.2738 6.22174 15.1231C6.02306 14.9724 5.88201 14.7752 5.79863 14.5317L5.70245 14.3104C5.63834 14.163 5.53742 13.9993 5.39953 13.8199C5.26165 13.6403 5.12222 13.5186 4.98117 13.4545L4.91382 13.4063C4.86895 13.3742 4.82731 13.3356 4.78881 13.2908C4.75034 13.2459 4.72154 13.2011 4.7023 13.1561C4.68303 13.1111 4.699 13.0743 4.75037 13.0453C4.80175 13.0164 4.89459 13.0023 5.02931 13.0023L5.22159 13.0311C5.34984 13.0568 5.50848 13.1335 5.6977 13.2619C5.88682 13.3901 6.04229 13.5568 6.16414 13.7619C6.31169 14.0248 6.48946 14.2252 6.69795 14.3631C6.90628 14.501 7.11632 14.5698 7.32788 14.5698C7.53943 14.5698 7.72216 14.5537 7.87611 14.5218C8.02989 14.4898 8.17418 14.4416 8.30889 14.3775C8.3666 13.9477 8.52372 13.6175 8.78011 13.3867C8.41467 13.3483 8.08612 13.2905 7.79428 13.2136C7.50261 13.1366 7.20121 13.0116 6.89027 12.8383C6.57917 12.6653 6.32109 12.4504 6.11597 12.194C5.91081 11.9375 5.74244 11.6008 5.61109 11.1841C5.47967 10.7672 5.41395 10.2864 5.41395 9.74137C5.41395 8.96538 5.66728 8.30504 6.17384 7.75997C5.93655 7.17657 5.95895 6.52256 6.24112 5.79801C6.42707 5.74023 6.70284 5.78359 7.06828 5.9278C7.43379 6.07209 7.7014 6.19569 7.87139 6.29817C8.04138 6.40061 8.17758 6.48742 8.28019 6.55783C8.87663 6.39118 9.49213 6.30783 10.1269 6.30783C10.7616 6.30783 11.3773 6.39118 11.9737 6.55783L12.3392 6.3271C12.5891 6.17315 12.8843 6.03207 13.2239 5.90382C13.5638 5.77564 13.8236 5.74033 14.0032 5.79811C14.2917 6.52269 14.3174 7.17667 14.08 7.76007C14.5865 8.30514 14.84 8.96565 14.84 9.74147C14.84 10.2865 14.774 10.7688 14.6428 11.1889C14.5114 11.609 14.3416 11.9454 14.1333 12.1988C13.9247 12.4522 13.665 12.6654 13.354 12.8384C13.043 13.0116 12.7415 13.1365 12.4499 13.2136C12.1581 13.2906 11.8295 13.3484 11.4641 13.3869C11.7974 13.6753 11.9641 14.1306 11.9641 14.7526V16.7818C11.9641 16.8971 12.0042 16.9933 12.0844 17.0702C12.1645 17.147 12.2911 17.1696 12.4643 17.1374C13.952 16.6438 15.1655 15.7542 16.1048 14.4685C17.044 13.183 17.5138 11.7356 17.5138 10.126C17.5135 8.7862 17.183 7.55043 16.5229 6.4187Z" fill="#e8e8e3   "/>
    </g>
    <defs>
    <clipPath id="clip0_2059_77">
    <rect width="20" height="20" rx="4" />
    </clipPath>
    </defs>
    </svg>