<svg viewBox="0 0 20 20" fill="currentColor" xmlns="http://www.w3.org/2000/svg">
    <path fill-rule="evenodd" clip-rule="evenodd" d="M10.8245 8.98236C10.8281 8.98236 10.831 8.97949 10.831 8.97595V8.97595C10.831 8.96947 10.8217 8.96661 10.818 8.97194C10.8178 8.97223 10.8176 8.97252 10.8174 8.97282C10.8146 8.97701 10.8177 8.98236 10.8228 8.98236H10.8245Z"/>
    <path fill-rule="evenodd" clip-rule="evenodd" d="M4 0C1.79086 0 0 1.79086 0 4V16C0 18.2091 1.79086 20 4 20H16C18.2091 20 20 18.2091 20 16V4C20 1.79086 18.2091 0 16 0H4ZM6.22075 15.1318C6.22075 15.9512 5.5565 16.6155 4.7371 16.6155V16.6155C3.9177 16.6155 3.25345 15.9512 3.25345 15.1318V9.17182C3.25345 8.35243 3.9177 7.68818 4.7371 7.68818V7.68818C5.5565 7.68818 6.22075 8.35243 6.22075 9.17183V15.1318ZM4.7371 6.46971H4.71749C3.72211 6.46971 3.07692 5.78396 3.07692 4.92681C3.07692 4.05086 3.74097 3.38453 4.75653 3.38453C5.77231 3.38453 6.39653 4.05086 6.41596 4.92681C6.41596 5.78396 5.77231 6.46971 4.7371 6.46971ZM16.9231 15.1314C16.9231 15.951 16.2586 16.6155 15.439 16.6155V16.6155C14.6194 16.6155 13.955 15.951 13.955 15.1314V11.8393C13.955 10.6397 13.5262 9.82088 12.4519 9.82088C11.6315 9.82088 11.144 10.3722 10.9292 10.9063C10.8512 11.0971 10.8308 11.3622 10.8308 11.6298V15.1348C10.8308 15.9526 10.1678 16.6155 9.35009 16.6155V16.6155C8.52949 16.6155 7.86531 15.9506 7.86853 15.13C7.87495 13.4956 7.8832 10.8792 7.87831 9.20546C7.8759 8.37815 8.55436 7.68822 9.38167 7.68822H10.5415C10.7013 7.68822 10.8308 7.81771 10.8308 7.97744V7.97744C10.8308 8.26535 11.2376 8.39687 11.4518 8.20453C11.8924 7.80895 12.5329 7.47864 13.5058 7.47864C15.459 7.47864 16.9231 8.75424 16.9231 11.4961V15.1314Z" />
    </svg>