<svg viewBox="0 0 64 112" fill="none" xmlns="http://www.w3.org/2000/svg">
    <path id="0" d="M62 107H61.9935H61.9871H61.9806H61.9742H61.9677H61.9613H61.9548H61.9484H61.9419H61.9355H61.9291H61.9227H61.9163H61.9099H61.9035H61.8971H61.8907H61.8843H61.8779H61.8716H61.8652H61.8588H61.8525H61.8461H61.8398H61.8334H61.8271H61.8208H61.8144H61.8081H61.8018H61.7955H61.7892H61.7829H61.7766H61.7703H61.7641H61.7578H61.7515H61.7453H61.739H61.7328H61.7265H61.7203H61.7141H61.7078H61.7016H61.6954H61.6892H61.683H61.6768H61.6706H61.6645H61.6583H61.6521H61.646H61.6398H61.6337H61.6275H61.6214H61.6153H61.6091H61.603H61.5969H61.5908H61.5847H61.5787H61.5726H61.5665H61.5604H61.5544H61.5483H61.5423H61.5362H61.5302H61.5242H61.5182H61.5122H61.5062H61.5002H61.4942H61.4882H61.4822H61.4763H61.4703H61.4644H61.4584H61.4525H61.4465H61.4406H61.4347H61.4288H61.4229H61.417H61.4111H61.4053H61.3994H61.3935H61.3877H61.3818H61.376H61.3702H61.3644H61.3585H61.3527H61.3469H61.3412H61.3354H61.3296H61.3238H61.3181H61.3123H61.3066H61.3009H61.2951H61.2894H61.2837H61.278H61.2723H61.2667H61.261H61.2553H61.2497H61.244H61.2384H61.2327H61.2271H61.2215H61.2159H61.2103H61.2047H61.1991H61.1936H61.188H61.1825H61.1769H61.1714H61.1659H61.1604H61.1548H61.1494H61.1439H61.1384H61.1329H61.1275H61.122H61.1166H61.1111H61.1057H61.1003H61.0949H61.0895H61.0841H61.0787H61.0734H61.068H61.0627H61.0573H61.052H61.0467H61.0414H61.0361H61.0308H61.0255H61.0202H61.015H61.0097H61.0045H61L61 5H61.0045H61.0097H61.015H61.0202H61.0255H61.0308H61.0361H61.0414H61.0467H61.052H61.0573H61.0627H61.068H61.0734H61.0787H61.0841H61.0895H61.0949H61.1003H61.1057H61.1111H61.1166H61.122H61.1275H61.1329H61.1384H61.1439H61.1494H61.1548H61.1604H61.1659H61.1714H61.1769H61.1825H61.188H61.1936H61.1991H61.2047H61.2103H61.2159H61.2215H61.2271H61.2327H61.2384H61.244H61.2497H61.2553H61.261H61.2667H61.2723H61.278H61.2837H61.2894H61.2951H61.3009H61.3066H61.3123H61.3181H61.3238H61.3296H61.3354H61.3412H61.3469H61.3527H61.3585H61.3644H61.3702H61.376H61.3818H61.3877H61.3935H61.3994H61.4053H61.4111H61.417H61.4229H61.4288H61.4347H61.4406H61.4465H61.4525H61.4584H61.4644H61.4703H61.4763H61.4822H61.4882H61.4942H61.5002H61.5062H61.5122H61.5182H61.5242H61.5302H61.5362H61.5423H61.5483H61.5544H61.5604H61.5665H61.5726H61.5787H61.5847H61.5908H61.5969H61.603H61.6091H61.6153H61.6214H61.6275H61.6337H61.6398H61.646H61.6521H61.6583H61.6645H61.6706H61.6768H61.683H61.6892H61.6954H61.7016H61.7078H61.7141H61.7203H61.7265H61.7328H61.739H61.7453H61.7515H61.7578H61.7641H61.7703H61.7766H61.7829H61.7892H61.7955H61.8018H61.8081H61.8144H61.8208H61.8271H61.8334H61.8398H61.8461H61.8525H61.8588H61.8652H61.8716H61.8779H61.8843H61.8907H61.8971H61.9035H61.9099H61.9163H61.9227H61.9291H61.9355H61.9419H61.9484H61.9548H61.9613H61.9677H61.9742H61.9806H61.9871H61.9935H62H62.0065H62.0129H62.0194H62.0258H62.0323H62.0387H62.0452H62.0516H62.0581H62.0645H62.0709H62.0773H62.0837H62.0901H62.0965H62.1029H62.1093H62.1157H62.1221H62.1284H62.1348H62.1412H62.1475H62.1539H62.1602H62.1666H62.1729H62.1792H62.1856H62.1919H62.1982H62.2045H62.2108H62.2171H62.2234H62.2297H62.2359H62.2422H62.2485H62.2547H62.261H62.2672H62.2735H62.2797H62.2859H62.2922H62.2984H62.3046H62.3108H62.317H62.3232H62.3294H62.3355H62.3417H62.3479H62.354H62.3602H62.3663H62.3725H62.3786H62.3847H62.3909H62.397H62.4031H62.4092H62.4153H62.4213H62.4274H62.4335H62.4396H62.4456H62.4517H62.4577H62.4638H62.4698H62.4758H62.4818H62.4878H62.4938H62.4998H62.5058H62.5118H62.5178H62.5237H62.5297H62.5356H62.5416H62.5475H62.5535H62.5594H62.5653H62.5712H62.5771H62.583H62.5889H62.5947H62.6006H62.6065H62.6123H62.6182H62.624H62.6298H62.6356H62.6415H62.6473H62.6531H62.6588H62.6646H62.6704H62.6762H62.6819H62.6877H62.6934H62.6991H62.7049H62.7106H62.7163H62.722H62.7277H62.7333H62.739H62.7447H62.7503H62.756H62.7616H62.7673H62.7729H62.7785H62.7841H62.7897H62.7953H62.8009H62.8064H62.812H62.8175H62.8231H62.8286H62.8341H62.8396H62.8452H62.8506H62.8561H62.8616H62.8671H62.8725H62.878H62.8834H62.8889H62.8943H62.8997H62.9051H62.9105H62.9159H62.9213H62.9266H62.932H62.9373H62.9427H62.948H62.9533H62.9586H62.9639H62.9692H62.9745H62.9798H62.985H62.9903H62.9955H63L63 107H62.9955H62.9903H62.985H62.9798H62.9745H62.9692H62.9639H62.9586H62.9533H62.948H62.9427H62.9373H62.932H62.9266H62.9213H62.9159H62.9105H62.9051H62.8997H62.8943H62.8889H62.8834H62.878H62.8725H62.8671H62.8616H62.8561H62.8506H62.8452H62.8396H62.8341H62.8286H62.8231H62.8175H62.812H62.8064H62.8009H62.7953H62.7897H62.7841H62.7785H62.7729H62.7673H62.7616H62.756H62.7503H62.7447H62.739H62.7333H62.7277H62.722H62.7163H62.7106H62.7049H62.6991H62.6934H62.6877H62.6819H62.6762H62.6704H62.6646H62.6588H62.6531H62.6473H62.6415H62.6356H62.6298H62.624H62.6182H62.6123H62.6065H62.6006H62.5947H62.5889H62.583H62.5771H62.5712H62.5653H62.5594H62.5535H62.5475H62.5416H62.5356H62.5297H62.5237H62.5178H62.5118H62.5058H62.4998H62.4938H62.4878H62.4818H62.4758H62.4698H62.4638H62.4577H62.4517H62.4456H62.4396H62.4335H62.4274H62.4213H62.4153H62.4092H62.4031H62.397H62.3909H62.3847H62.3786H62.3725H62.3663H62.3602H62.354H62.3479H62.3417H62.3355H62.3294H62.3232H62.317H62.3108H62.3046H62.2984H62.2922H62.2859H62.2797H62.2735H62.2672H62.261H62.2547H62.2485H62.2422H62.2359H62.2297H62.2234H62.2171H62.2108H62.2045H62.1982H62.1919H62.1856H62.1792H62.1729H62.1666H62.1602H62.1539H62.1475H62.1412H62.1348H62.1284H62.1221H62.1157H62.1093H62.1029H62.0965H62.0901H62.0837H62.0773H62.0709H62.0645H62.0581H62.0516H62.0452H62.0387H62.0323H62.0258H62.0194H62.0129H62.0065H62Z" stroke="currentColor" fill="none" stroke-opacity="0" stroke-width="2"/>
    <path id="1" d="M2 107H1.99353H1.98707H1.98061H1.97415H1.9677H1.96125H1.95481H1.94838H1.94195H1.93552H1.9291H1.92269H1.91628H1.90987H1.90347H1.89708H1.89069H1.88431H1.87793H1.87156H1.86519H1.85883H1.85247H1.84612H1.83977H1.83343H1.8271H1.82077H1.81445H1.80813H1.80182H1.79551H1.78921H1.78292H1.77663H1.77035H1.76407H1.7578H1.75153H1.74527H1.73902H1.73277H1.72653H1.7203H1.71407H1.70785H1.70163H1.69542H1.68922H1.68302H1.67683H1.67064H1.66446H1.65829H1.65213H1.64597H1.63981H1.63367H1.62753H1.6214H1.61527H1.60915H1.60304H1.59693H1.59083H1.58474H1.57865H1.57257H1.5665H1.56044H1.55438H1.54833H1.54228H1.53624H1.53021H1.52419H1.51817H1.51217H1.50616H1.50017H1.49418H1.4882H1.48223H1.47626H1.47031H1.46435H1.45841H1.45248H1.44655H1.44063H1.43471H1.42881H1.42291H1.41702H1.41114H1.40526H1.39939H1.39353H1.38768H1.38184H1.376H1.37017H1.36435H1.35854H1.35274H1.34694H1.34115H1.33537H1.3296H1.32384H1.31808H1.31233H1.30659H1.30086H1.29514H1.28942H1.28372H1.27802H1.27233H1.26665H1.26098H1.25531H1.24966H1.24401H1.23837H1.23274H1.22712H1.22151H1.21591H1.21031H1.20473H1.19915H1.19358H1.18802H1.18247H1.17693H1.17139H1.16587H1.16036H1.15485H1.14935H1.14387H1.13839H1.13292H1.12746H1.12201H1.11656H1.11113H1.10571H1.1003H1.09489H1.0895H1.08411H1.07874H1.07337H1.06801H1.06267H1.05733H1.052H1.04668H1.04137H1.03607H1.03078H1.02551H1.02024H1.01498H1.00973H1.00449H1L1 5H1.00449H1.00973H1.01498H1.02024H1.02551H1.03078H1.03607H1.04137H1.04668H1.052H1.05733H1.06267H1.06801H1.07337H1.07874H1.08411H1.0895H1.09489H1.1003H1.10571H1.11113H1.11656H1.12201H1.12746H1.13292H1.13839H1.14387H1.14935H1.15485H1.16036H1.16587H1.17139H1.17693H1.18247H1.18802H1.19358H1.19915H1.20473H1.21031H1.21591H1.22151H1.22712H1.23274H1.23837H1.24401H1.24966H1.25531H1.26098H1.26665H1.27233H1.27802H1.28372H1.28942H1.29514H1.30086H1.30659H1.31233H1.31808H1.32384H1.3296H1.33537H1.34115H1.34694H1.35274H1.35854H1.36435H1.37017H1.376H1.38184H1.38768H1.39353H1.39939H1.40526H1.41114H1.41702H1.42291H1.42881H1.43471H1.44063H1.44655H1.45248H1.45841H1.46435H1.47031H1.47626H1.48223H1.4882H1.49418H1.50017H1.50616H1.51217H1.51817H1.52419H1.53021H1.53624H1.54228H1.54833H1.55438H1.56044H1.5665H1.57257H1.57865H1.58474H1.59083H1.59693H1.60304H1.60915H1.61527H1.6214H1.62753H1.63367H1.63981H1.64597H1.65213H1.65829H1.66446H1.67064H1.67683H1.68302H1.68922H1.69542H1.70163H1.70785H1.71407H1.7203H1.72653H1.73277H1.73902H1.74527H1.75153H1.7578H1.76407H1.77035H1.77663H1.78292H1.78921H1.79551H1.80182H1.80813H1.81445H1.82077H1.8271H1.83343H1.83977H1.84612H1.85247H1.85883H1.86519H1.87156H1.87793H1.88431H1.89069H1.89708H1.90347H1.90987H1.91628H1.92269H1.9291H1.93552H1.94195H1.94838H1.95481H1.96125H1.9677H1.97415H1.98061H1.98707H1.99353H2H2.00647H2.01293H2.01939H2.02585H2.0323H2.03875H2.04519H2.05162H2.05805H2.06448H2.0709H2.07731H2.08372H2.09013H2.09653H2.10292H2.10931H2.11569H2.12207H2.12844H2.13481H2.14117H2.14753H2.15388H2.16023H2.16657H2.1729H2.17923H2.18555H2.19187H2.19818H2.20449H2.21079H2.21708H2.22337H2.22965H2.23593H2.2422H2.24847H2.25473H2.26098H2.26723H2.27347H2.2797H2.28593H2.29215H2.29837H2.30458H2.31078H2.31698H2.32317H2.32936H2.33554H2.34171H2.34787H2.35403H2.36019H2.36633H2.37247H2.3786H2.38473H2.39085H2.39696H2.40307H2.40917H2.41526H2.42135H2.42743H2.4335H2.43956H2.44562H2.45167H2.45772H2.46376H2.46979H2.47581H2.48183H2.48783H2.49384H2.49983H2.50582H2.5118H2.51777H2.52374H2.52969H2.53565H2.54159H2.54752H2.55345H2.55937H2.56529H2.57119H2.57709H2.58298H2.58886H2.59474H2.60061H2.60647H2.61232H2.61816H2.624H2.62983H2.63565H2.64146H2.64726H2.65306H2.65885H2.66463H2.6704H2.67616H2.68192H2.68767H2.69341H2.69914H2.70486H2.71058H2.71628H2.72198H2.72767H2.73335H2.73902H2.74469H2.75034H2.75599H2.76163H2.76726H2.77288H2.77849H2.78409H2.78969H2.79527H2.80085H2.80642H2.81198H2.81753H2.82307H2.82861H2.83413H2.83964H2.84515H2.85065H2.85613H2.86161H2.86708H2.87254H2.87799H2.88344H2.88887H2.89429H2.8997H2.90511H2.9105H2.91589H2.92126H2.92663H2.93199H2.93733H2.94267H2.948H2.95332H2.95863H2.96393H2.96922H2.97449H2.97976H2.98502H2.99027H2.99551H3L3 107H2.99551H2.99027H2.98502H2.97976H2.97449H2.96922H2.96393H2.95863H2.95332H2.948H2.94267H2.93733H2.93199H2.92663H2.92126H2.91589H2.9105H2.90511H2.8997H2.89429H2.88887H2.88344H2.87799H2.87254H2.86708H2.86161H2.85613H2.85065H2.84515H2.83964H2.83413H2.82861H2.82307H2.81753H2.81198H2.80642H2.80085H2.79527H2.78969H2.78409H2.77849H2.77288H2.76726H2.76163H2.75599H2.75034H2.74469H2.73902H2.73335H2.72767H2.72198H2.71628H2.71058H2.70486H2.69914H2.69341H2.68767H2.68192H2.67616H2.6704H2.66463H2.65885H2.65306H2.64726H2.64146H2.63565H2.62983H2.624H2.61816H2.61232H2.60647H2.60061H2.59474H2.58886H2.58298H2.57709H2.57119H2.56529H2.55937H2.55345H2.54752H2.54159H2.53565H2.52969H2.52374H2.51777H2.5118H2.50582H2.49983H2.49384H2.48783H2.48183H2.47581H2.46979H2.46376H2.45772H2.45167H2.44562H2.43956H2.4335H2.42743H2.42135H2.41526H2.40917H2.40307H2.39696H2.39085H2.38473H2.3786H2.37247H2.36633H2.36019H2.35403H2.34787H2.34171H2.33554H2.32936H2.32317H2.31698H2.31078H2.30458H2.29837H2.29215H2.28593H2.2797H2.27347H2.26723H2.26098H2.25473H2.24847H2.2422H2.23593H2.22965H2.22337H2.21708H2.21079H2.20449H2.19818H2.19187H2.18555H2.17923H2.1729H2.16657H2.16023H2.15388H2.14753H2.14117H2.13481H2.12844H2.12207H2.11569H2.10931H2.10292H2.09653H2.09013H2.08372H2.07731H2.0709H2.06448H2.05805H2.05162H2.04519H2.03875H2.0323H2.02585H2.01939H2.01293H2.00647H2Z" stroke="currentColor" fill="none" stroke-opacity="0" stroke-width="2"/>
    <path id="2" d="M1 2C1 1.99996 1 1.99992 1 1.99987C1 1.99986 1 1.99984 1 1.99983C1.00009 1.44762 1.44777 1 2 1H62C62.5523 1 63 1.44771 63 2L63 3H1.00017L1 2Z" stroke="currentColor" fill="none" stroke-opacity="0" stroke-width="2"/>
    <path id="3" d="M17 30C17 29.3181 17.4571 29 17.75 29H43L43 30V30.0065V30.0129V30.0194V30.0258V30.0323V30.0387V30.0452V30.0516V30.0581V30.0645V30.0709V30.0773V30.0837V30.0901V30.0965V30.1029V30.1093V30.1157V30.1221V30.1284V30.1348V30.1412V30.1475V30.1539V30.1602V30.1666V30.1729V30.1792V30.1856V30.1919V30.1982V30.2045V30.2108V30.2171V30.2234V30.2297V30.2359V30.2422V30.2485V30.2547V30.261V30.2672V30.2735V30.2797V30.2859V30.2922V30.2984V30.3046V30.3108V30.317V30.3232V30.3294V30.3355V30.3417V30.3479V30.354V30.3602V30.3663V30.3725V30.3786V30.3847V30.3909V30.397V30.4031V30.4092V30.4153V30.4213V30.4274V30.4335V30.4396V30.4456V30.4517V30.4577V30.4638V30.4698V30.4758V30.4818V30.4878V30.4938V30.4998V30.5058V30.5118V30.5178V30.5237V30.5297V30.5356V30.5416V30.5475V30.5535V30.5594V30.5653V30.5712V30.5771V30.583V30.5889V30.5947V30.6006V30.6065V30.6123V30.6182V30.624V30.6298V30.6356V30.6415V30.6473V30.6531V30.6588V30.6646V30.6704V30.6762V30.6819V30.6877V30.6934V30.6991V30.7049V30.7106V30.7163V30.722V30.7277V30.7333V30.739V30.7447V30.7503V30.756V30.7616V30.7673V30.7729V30.7785V30.7841V30.7897V30.7953V30.8009V30.8064V30.812V30.8175V30.8231V30.8286V30.8341V30.8396V30.8452V30.8506V30.8561V30.8616V30.8671V30.8725V30.878V30.8834V30.8889V30.8943V30.8997V30.9051V30.9105V30.9159V30.9213V30.9266V30.932V30.9373V30.9427V30.948V30.9533V30.9586V30.9639V30.9692V30.9745V30.9798V30.985V30.9903V30.9955V31H17L17 30Z" stroke="currentColor" fill="none" stroke-opacity="0" stroke-width="2"/>
    <path id="4" d="M17 82L17.0001 81H43V81.0045V81.0097V81.015V81.0202V81.0255V81.0308V81.0361V81.0414V81.0467V81.052V81.0573V81.0627V81.068V81.0734V81.0787V81.0841V81.0895V81.0949V81.1003V81.1057V81.1111V81.1166V81.122V81.1275V81.1329V81.1384V81.1439V81.1494V81.1548V81.1604V81.1659V81.1714V81.1769V81.1825V81.188V81.1936V81.1991V81.2047V81.2103V81.2159V81.2215V81.2271V81.2327V81.2384V81.244V81.2497V81.2553V81.261V81.2667V81.2723V81.278V81.2837V81.2894V81.2951V81.3009V81.3066V81.3123V81.3181V81.3238V81.3296V81.3354V81.3412V81.3469V81.3527V81.3585V81.3644V81.3702V81.376V81.3818V81.3877V81.3935V81.3994V81.4053V81.4111V81.417V81.4229V81.4288V81.4347V81.4406V81.4465V81.4525V81.4584V81.4644V81.4703V81.4763V81.4822V81.4882V81.4942V81.5002V81.5062V81.5122V81.5182V81.5242V81.5302V81.5362V81.5423V81.5483V81.5544V81.5604V81.5665V81.5726V81.5787V81.5847V81.5908V81.5969V81.603V81.6091V81.6153V81.6214V81.6275V81.6337V81.6398V81.646V81.6521V81.6583V81.6645V81.6706V81.6768V81.683V81.6892V81.6954V81.7016V81.7078V81.7141V81.7203V81.7265V81.7328V81.739V81.7453V81.7515V81.7578V81.7641V81.7703V81.7766V81.7829V81.7892V81.7955V81.8018V81.8081V81.8144V81.8208V81.8271V81.8334V81.8398V81.8461V81.8525V81.8588V81.8652V81.8716V81.8779V81.8843V81.8907V81.8971V81.9035V81.9099V81.9163V81.9227V81.9291V81.9355V81.9419V81.9484V81.9548V81.9613V81.9677V81.9742V81.9806V81.9871V81.9935V82V82.0065V82.0129V82.0194V82.0258V82.0323V82.0387V82.0452V82.0516V82.0581V82.0645V82.0709V82.0773V82.0837V82.0901V82.0965V82.1029V82.1093V82.1157V82.1221V82.1284V82.1348V82.1412V82.1475V82.1539V82.1602V82.1666V82.1729V82.1792V82.1856V82.1919V82.1982V82.2045V82.2108V82.2171V82.2234V82.2297V82.2359V82.2422V82.2485V82.2547V82.261V82.2672V82.2735V82.2797V82.2859V82.2922V82.2984V82.3046V82.3108V82.317V82.3232V82.3294V82.3355V82.3417V82.3479V82.354V82.3602V82.3663V82.3725V82.3786V82.3847V82.3909V82.397V82.4031V82.4092V82.4153V82.4213V82.4274V82.4335V82.4396V82.4456V82.4517V82.4577V82.4638V82.4698V82.4758V82.4818V82.4878V82.4938V82.4998V82.5058V82.5118V82.5178V82.5237V82.5297V82.5356V82.5416V82.5475V82.5535V82.5594V82.5653V82.5712V82.5771V82.583V82.5889V82.5947V82.6006V82.6065V82.6123V82.6182V82.624V82.6298V82.6356V82.6415V82.6473V82.6531V82.6588V82.6646V82.6704V82.6762V82.6819V82.6877V82.6934V82.6991V82.7049V82.7106V82.7163V82.722V82.7277V82.7333V82.739V82.7447V82.7503V82.756V82.7616V82.7673V82.7729V82.7785V82.7841V82.7897V82.7953V82.8009V82.8064V82.812V82.8175V82.8231V82.8286V82.8341V82.8396V82.8452V82.8506V82.8561V82.8616V82.8671V82.8725V82.878V82.8834V82.8889V82.8943V82.8997V82.9051V82.9105V82.9159V82.9213V82.9266V82.932V82.9373V82.9427V82.948V82.9533V82.9586V82.9639V82.9692V82.9745V82.9798V82.985V82.9903V82.9955V83H17.75C17.457 83 17 82.6819 17 82Z" stroke="currentColor" fill="none" stroke-opacity="0" stroke-width="2"/>
    <path id="5" d="M45 83V29H45.0045H45.0097H45.015H45.0202H45.0255H45.0308H45.0361H45.0414H45.0467H45.052H45.0573H45.0627H45.068H45.0734H45.0787H45.0841H45.0895H45.0949H45.1003H45.1057H45.1111H45.1166H45.122H45.1275H45.1329H45.1384H45.1439H45.1494H45.1548H45.1604H45.1659H45.1714H45.1769H45.1825H45.188H45.1936H45.1991H45.2047H45.2103H45.2159H45.2215H45.2271H45.2327H45.2384H45.244H45.2497H45.2553H45.261H45.2667H45.2723H45.278H45.2837H45.2894H45.2951H45.3009H45.3066H45.3123H45.3181H45.3238H45.3296H45.3354H45.3412H45.3469H45.3527H45.3585H45.3644H45.3702H45.376H45.3818H45.3877H45.3935H45.3994H45.4053H45.4111H45.417H45.4229H45.4288H45.4347H45.4406H45.4465H45.4525H45.4584H45.4644H45.4703H45.4763H45.4822H45.4882H45.4942H45.5002H45.5062H45.5122H45.5182H45.5242H45.5302H45.5362H45.5423H45.5483H45.5544H45.5604H45.5665H45.5726H45.5787H45.5847H45.5908H45.5969H45.603H45.6091H45.6153H45.6214H45.6275H45.6337H45.6398H45.646H45.6521H45.6583H45.6645H45.6706H45.6768H45.683H45.6892H45.6954H45.7016H45.7078H45.7141H45.7203H45.7265H45.7328H45.739H45.7453H45.7515H45.7578H45.7641H45.7703H45.7766H45.7829H45.7892H45.7955H45.8018H45.8081H45.8144H45.8208H45.8271H45.8334H45.8398H45.8461H45.8525H45.8588H45.8652H45.8716H45.8779H45.8843H45.8907H45.8971H45.9035H45.9099H45.9163H45.9227H45.9291H45.9355H45.9419H45.9484H45.9548H45.9613H45.9677H45.9742H45.9806H45.9871H45.9935H46C46.5523 29 47 29.4477 47 30V82C47 82.5523 46.5523 83 46 83L45 83Z" stroke="currentColor" fill="none" stroke-opacity="0" stroke-width="2"/>
    <path id="6" d="M23.0004 36C23.0004 35.6589 23.1119 35.3831 23.2499 35.2105C23.3865 35.0397 23.5168 35 23.6004 35H37.0004V35.0045V35.0097V35.015V35.0202V35.0255V35.0308V35.0361V35.0414V35.0467V35.052V35.0573V35.0627V35.068V35.0734V35.0787V35.0841V35.0895V35.0949V35.1003V35.1057V35.1111V35.1166V35.122V35.1275V35.1329V35.1384V35.1439V35.1494V35.1548V35.1604V35.1659V35.1714V35.1769V35.1825V35.188V35.1936V35.1991V35.2047V35.2103V35.2159V35.2215V35.2271V35.2327V35.2384V35.244V35.2497V35.2553V35.261V35.2667V35.2723V35.278V35.2837V35.2894V35.2951V35.3009V35.3066V35.3123V35.3181V35.3238V35.3296V35.3354V35.3412V35.3469V35.3527V35.3585V35.3644V35.3702V35.376V35.3818V35.3877V35.3935V35.3994V35.4053V35.4111V35.417V35.4229V35.4288V35.4347V35.4406V35.4465V35.4525V35.4584V35.4644V35.4703V35.4763V35.4822V35.4882V35.4942V35.5002V35.5062V35.5122V35.5182V35.5242V35.5302V35.5362V35.5423V35.5483V35.5544V35.5604V35.5665V35.5726V35.5787V35.5847V35.5908V35.5969V35.603V35.6091V35.6153V35.6214V35.6275V35.6337V35.6398V35.646V35.6521V35.6583V35.6645V35.6706V35.6768V35.683V35.6892V35.6954V35.7016V35.7078V35.7141V35.7203V35.7265V35.7328V35.739V35.7453V35.7515V35.7578V35.7641V35.7703V35.7766V35.7829V35.7892V35.7955V35.8018V35.8081V35.8144V35.8208V35.8271V35.8334V35.8398V35.8461V35.8525V35.8588V35.8652V35.8716V35.8779V35.8843V35.8907V35.8971V35.9035V35.9099V35.9163V35.9227V35.9291V35.9355V35.9419V35.9484V35.9548V35.9613V35.9677V35.9742V35.9806V35.9871V35.9935V36L37.0003 37H23.0003L23.0004 36Z" stroke="currentColor" fill="none" stroke-opacity="0" stroke-width="2"/>
    <path id="7" d="M27.0001 52L27.0001 51H41.0001V51.0045V51.0097V51.015V51.0202V51.0255V51.0308V51.0361V51.0414V51.0467V51.052V51.0573V51.0627V51.068V51.0734V51.0787V51.0841V51.0895V51.0949V51.1003V51.1057V51.1111V51.1166V51.122V51.1275V51.1329V51.1384V51.1439V51.1494V51.1548V51.1604V51.1659V51.1714V51.1769V51.1825V51.188V51.1936V51.1991V51.2047V51.2103V51.2159V51.2215V51.2271V51.2327V51.2384V51.244V51.2497V51.2553V51.261V51.2667V51.2723V51.278V51.2837V51.2894V51.2951V51.3009V51.3066V51.3123V51.3181V51.3238V51.3296V51.3354V51.3412V51.3469V51.3527V51.3585V51.3644V51.3702V51.376V51.3818V51.3877V51.3935V51.3994V51.4053V51.4111V51.417V51.4229V51.4288V51.4347V51.4406V51.4465V51.4525V51.4584V51.4644V51.4703V51.4763V51.4822V51.4882V51.4942V51.5002V51.5062V51.5122V51.5182V51.5242V51.5302V51.5362V51.5423V51.5483V51.5544V51.5604V51.5665V51.5726V51.5787V51.5847V51.5908V51.5969V51.603V51.6091V51.6153V51.6214V51.6275V51.6337V51.6398V51.646V51.6521V51.6583V51.6645V51.6706V51.6768V51.683V51.6892V51.6954V51.7016V51.7078V51.7141V51.7203V51.7265V51.7328V51.739V51.7453V51.7515V51.7578V51.7641V51.7703V51.7766V51.7829V51.7892V51.7955V51.8018V51.8081V51.8144V51.8208V51.8271V51.8334V51.8398V51.8461V51.8525V51.8588V51.8652V51.8716V51.8779V51.8843V51.8907V51.8971V51.9035V51.9099V51.9163V51.9227V51.9291V51.9355V51.9419V51.9484V51.9548V51.9613V51.9677V51.9742V51.9806V51.9871V51.9935V52C41.0001 52.3411 40.8887 52.617 40.7506 52.7895C40.614 52.9603 40.4837 53 40.4001 53H27.0001L27.0001 52Z" stroke="currentColor" fill="none" stroke-opacity="0" stroke-width="2"/>
    <path id="8" d="M40 48.9999L39 49V34.9999H39.0045H39.0097H39.015H39.0202H39.0255H39.0308H39.0361H39.0414H39.0467H39.052H39.0573H39.0627H39.068H39.0734H39.0787H39.0841H39.0895H39.0949H39.1003H39.1057H39.1111H39.1166H39.122H39.1275H39.1329H39.1384H39.1439H39.1494H39.1548H39.1604H39.1659H39.1714H39.1769H39.1825H39.188H39.1936H39.1991H39.2047H39.2103H39.2159H39.2215H39.2271H39.2327H39.2384H39.244H39.2497H39.2553H39.261H39.2667H39.2723H39.278H39.2837H39.2894H39.2951H39.3009H39.3066H39.3123H39.3181H39.3238H39.3296H39.3354H39.3412H39.3469H39.3527H39.3585H39.3644H39.3702H39.376H39.3818H39.3877H39.3935H39.3994H39.4053H39.4111H39.417H39.4229H39.4288H39.4347H39.4406H39.4465H39.4525H39.4584H39.4644H39.4703H39.4763H39.4822H39.4882H39.4942H39.5002H39.5062H39.5122H39.5182H39.5242H39.5302H39.5362H39.5423H39.5483H39.5544H39.5604H39.5665H39.5726H39.5787H39.5847H39.5908H39.5969H39.603H39.6091H39.6153H39.6214H39.6275H39.6337H39.6398H39.646H39.6521H39.6583H39.6645H39.6706H39.6768H39.683H39.6892H39.6954H39.7016H39.7078H39.7141H39.7203H39.7265H39.7328H39.739H39.7453H39.7515H39.7578H39.7641H39.7703H39.7766H39.7829H39.7892H39.7955H39.8018H39.8081H39.8144H39.8208H39.8271H39.8334H39.8398H39.8461H39.8525H39.8588H39.8652H39.8716H39.8779H39.8843H39.8907H39.8971H39.9035H39.9099H39.9163H39.9227H39.9291H39.9355H39.9419H39.9484H39.9548H39.9613H39.9677H39.9742H39.9806H39.9871H39.9935H40C40.3411 34.9999 40.6169 35.1114 40.7895 35.2494C40.9603 35.386 41 35.5163 41 35.5999V48.9999L40 48.9999Z" stroke="currentColor" fill="none" stroke-opacity="0" stroke-width="2"/>
    <path id="9" d="M24 52.9999C23.6589 52.9999 23.3831 52.8884 23.2105 52.7504C23.0397 52.6138 23 52.4835 23 52.3999V38.9999L24 38.9998L25 38.9999V52.9999L24 52.9999Z" stroke="currentColor" fill="none" stroke-opacity="0" stroke-width="2"/>
    <path id="10" d="M18 79L17 78.9999L17 33H17.0045H17.0097H17.015H17.0202H17.0255H17.0308H17.0361H17.0414H17.0467H17.052H17.0573H17.0627H17.068H17.0734H17.0787H17.0841H17.0895H17.0949H17.1003H17.1057H17.1111H17.1166H17.122H17.1275H17.1329H17.1384H17.1439H17.1494H17.1548H17.1604H17.1659H17.1714H17.1769H17.1825H17.188H17.1936H17.1991H17.2047H17.2103H17.2159H17.2215H17.2271H17.2327H17.2384H17.244H17.2497H17.2553H17.261H17.2667H17.2723H17.278H17.2837H17.2894H17.2951H17.3009H17.3066H17.3123H17.3181H17.3238H17.3296H17.3354H17.3412H17.3469H17.3527H17.3585H17.3644H17.3702H17.376H17.3818H17.3877H17.3935H17.3994H17.4053H17.4111H17.417H17.4229H17.4288H17.4347H17.4406H17.4465H17.4525H17.4584H17.4644H17.4703H17.4763H17.4822H17.4882H17.4942H17.5002H17.5062H17.5122H17.5182H17.5242H17.5302H17.5362H17.5423H17.5483H17.5544H17.5604H17.5665H17.5726H17.5787H17.5847H17.5908H17.5969H17.603H17.6091H17.6153H17.6214H17.6275H17.6337H17.6398H17.646H17.6521H17.6583H17.6645H17.6706H17.6768H17.683H17.6892H17.6954H17.7016H17.7078H17.7141H17.7203H17.7265H17.7328H17.739H17.7453H17.7515H17.7578H17.7641H17.7703H17.7766H17.7829H17.7892H17.7955H17.8018H17.8081H17.8144H17.8208H17.8271H17.8334H17.8398H17.8461H17.8525H17.8588H17.8652H17.8716H17.8779H17.8843H17.8907H17.8971H17.9035H17.9099H17.9163H17.9227H17.9291H17.9355H17.9419H17.9484H17.9548H17.9613H17.9677H17.9742H17.9806H17.9871H17.9935H18H18.0065H18.0129H18.0194H18.0258H18.0323H18.0387H18.0452H18.0516H18.0581H18.0645H18.0709H18.0773H18.0837H18.0901H18.0965H18.1029H18.1093H18.1157H18.1221H18.1284H18.1348H18.1412H18.1475H18.1539H18.1602H18.1666H18.1729H18.1792H18.1856H18.1919H18.1982H18.2045H18.2108H18.2171H18.2234H18.2297H18.2359H18.2422H18.2485H18.2547H18.261H18.2672H18.2735H18.2797H18.2859H18.2922H18.2984H18.3046H18.3108H18.317H18.3232H18.3294H18.3355H18.3417H18.3479H18.354H18.3602H18.3663H18.3725H18.3786H18.3847H18.3909H18.397H18.4031H18.4092H18.4153H18.4213H18.4274H18.4335H18.4396H18.4456H18.4517H18.4577H18.4638H18.4698H18.4758H18.4818H18.4878H18.4938H18.4998H18.5058H18.5118H18.5178H18.5237H18.5297H18.5356H18.5416H18.5475H18.5535H18.5594H18.5653H18.5712H18.5771H18.583H18.5889H18.5947H18.6006H18.6065H18.6123H18.6182H18.624H18.6298H18.6356H18.6415H18.6473H18.6531H18.6588H18.6646H18.6704H18.6762H18.6819H18.6877H18.6934H18.6991H18.7049H18.7106H18.7163H18.722H18.7277H18.7333H18.739H18.7447H18.7503H18.756H18.7616H18.7673H18.7729H18.7785H18.7841H18.7897H18.7953H18.8009H18.8064H18.812H18.8175H18.8231H18.8286H18.8341H18.8396H18.8452H18.8506H18.8561H18.8616H18.8671H18.8725H18.878H18.8834H18.8889H18.8943H18.8997H18.9051H18.9105H18.9159H18.9213H18.9266H18.932H18.9373H18.9427H18.948H18.9533H18.9586H18.9639H18.9692H18.9745H18.9798H18.985H18.9903H18.9955H19L19 78.9998L18 79Z" stroke="currentColor" fill="none" stroke-opacity="0" stroke-width="2"/>
    <path id="11" d="M2.00025 109H63.0003V109.004V109.01V109.015V109.02V109.026V109.031V109.036V109.041V109.047V109.052V109.057V109.063V109.068V109.073V109.079V109.084V109.089V109.095V109.1V109.106V109.111V109.117V109.122V109.127V109.133V109.138V109.144V109.149V109.155V109.16V109.166V109.171V109.177V109.182V109.188V109.194V109.199V109.205V109.21V109.216V109.222V109.227V109.233V109.238V109.244V109.25V109.255V109.261V109.267V109.272V109.278V109.284V109.289V109.295V109.301V109.307V109.312V109.318V109.324V109.33V109.335V109.341V109.347V109.353V109.359V109.364V109.37V109.376V109.382V109.388V109.394V109.399V109.405V109.411V109.417V109.423V109.429V109.435V109.441V109.447V109.452V109.458V109.464V109.47V109.476V109.482V109.488V109.494V109.5V109.506V109.512V109.518V109.524V109.53V109.536V109.542V109.548V109.554V109.56V109.567V109.573V109.579V109.585V109.591V109.597V109.603V109.609V109.615V109.621V109.628V109.634V109.64V109.646V109.652V109.658V109.664V109.671V109.677V109.683V109.689V109.695V109.702V109.708V109.714V109.72V109.727V109.733V109.739V109.745V109.752V109.758V109.764V109.77V109.777V109.783V109.789V109.796V109.802V109.808V109.814V109.821V109.827V109.833V109.84V109.846V109.852V109.859V109.865V109.872V109.878V109.884V109.891V109.897V109.903V109.91V109.916V109.923V109.929V109.936V109.942V109.948V109.955V109.961V109.968V109.974V109.981V109.987V109.994V110C63.0003 110.552 62.5525 111 62.0003 111H1.00016L1.00026 110V109H2.00025Z" stroke="currentColor" fill="none" stroke-opacity="0" stroke-width="2"/>
    <path id="12" d="M34.778 14.4642V20.3922H34.042V11.1602H34.778V14.4642ZM36.6124 13.913L34.7941 11.1602H35.2387L39.5184 17.6695L41.3085 20.3922H40.8919L36.6124 13.913ZM41.354 17.1202V11.1602H42.09V20.3922H41.354V17.1202Z" stroke="currentColor" fill="none" stroke-opacity="0" stroke-width="2"/>
    <path id="13" d="M28.1827 11.6081L28.1827 11.6082L28.1873 11.6107C28.9136 12.0132 29.4742 12.5657 29.8844 13.2813L29.8844 13.2813L29.889 13.2892C30.3038 13.9978 30.52 14.8075 30.52 15.744C30.52 16.6794 30.3043 17.4958 29.8876 18.2171C29.4646 18.939 28.9 19.4935 28.1827 19.8959C27.4655 20.2982 26.6701 20.504 25.776 20.504C24.8829 20.504 24.0809 20.2986 23.351 19.8946C22.6343 19.492 22.0638 18.9367 21.6301 18.2132C21.215 17.4928 21 16.6777 21 15.744C21 14.8092 21.2154 14.0008 21.6287 13.2931C22.0626 12.5685 22.6335 12.0124 23.351 11.6094C24.0809 11.2054 24.8829 11 25.776 11C26.6701 11 27.4655 11.2058 28.1827 11.6081ZM22.8667 12.6801L22.8667 12.68L22.8601 12.6873C22.1185 13.503 21.8 14.5608 21.8 15.744C21.8 16.9206 22.1205 17.9725 22.8541 18.794L22.8603 18.801L22.8667 18.8079C23.6261 19.6268 24.6319 20.008 25.776 20.008C26.9175 20.008 27.9162 19.6156 28.6627 18.7817C29.4064 17.963 29.736 16.9164 29.736 15.744C29.736 14.5665 29.4093 13.5153 28.6597 12.703C27.9135 11.8714 26.9159 11.48 25.776 11.48C24.6319 11.48 23.6261 11.8612 22.8667 12.6801Z" stroke="currentColor" fill="none" stroke-opacity="0" stroke-width="2"/>
    <path id="14" d="M40.528 96.8482V100.392H39.792V91.1602H45.104V91.3522H41.528H40.528V92.3522V94.7202V95.7202H41.528H43.952V95.8482H41.528H40.528V96.8482Z" stroke="currentColor" fill="none" stroke-opacity="0" stroke-width="2"/>
    <path id="15" d="M31.778 96.8482V100.392H31.042V91.1602H36.354V91.3522H32.778H31.778V92.3522V94.7202V95.7202H32.778H35.202V95.8482H32.778H31.778V96.8482Z" stroke="currentColor" fill="none" stroke-opacity="0" stroke-width="2"/>
    <path id="16" d="M25.1827 91.6081L25.1827 91.6082L25.1873 91.6107C25.9136 92.0132 26.4742 92.5657 26.8844 93.2813L26.8844 93.2813L26.889 93.2892C27.3038 93.9978 27.52 94.8075 27.52 95.744C27.52 96.6794 27.3043 97.4958 26.8876 98.2171C26.4646 98.939 25.9 99.4935 25.1827 99.8959C24.4655 100.298 23.6701 100.504 22.776 100.504C21.8829 100.504 21.0809 100.299 20.351 99.8946C19.6343 99.492 19.0638 98.9367 18.6301 98.2132C18.215 97.4928 18 96.6777 18 95.744C18 94.8092 18.2154 94.0008 18.6287 93.2931C19.0626 92.5685 19.6335 92.0124 20.351 91.6094C21.0809 91.2054 21.8829 91 22.776 91C23.6701 91 24.4655 91.2058 25.1827 91.6081ZM19.8667 92.6801L19.8667 92.68L19.8601 92.6873C19.1185 93.503 18.8 94.5608 18.8 95.744C18.8 96.9206 19.1205 97.9725 19.8541 98.794L19.8603 98.801L19.8667 98.8079C20.6261 99.6268 21.6319 100.008 22.776 100.008C23.9175 100.008 24.9162 99.6156 25.6627 98.7817C26.4064 97.963 26.736 96.9164 26.736 95.744C26.736 94.5665 26.4093 93.5153 25.6597 92.703C24.9135 91.8714 23.9159 91.48 22.776 91.48C21.6319 91.48 20.6261 91.8612 19.8667 92.6801Z" stroke="currentColor" fill="none" stroke-opacity="0" stroke-width="2"/>
</svg>
    