<svg viewBox="0 0 64 112" fill="none" xmlns="http://www.w3.org/2000/svg">
    <path d="M2 111.5H63.5V0.5H0.5V111.5H1.5V1.5H62.5V110.5H2.5V2.5H61.5V109.5H3.5V3.5H60.5V108.5H4.34248L20 100.5C16.5 97 18 91.5 23 91.5C28 91.5 31 99.5 23.5 101H32V92H37L33 93V96H36L33 97V101H41V97H44.5L41 95.5V92.5H46L41 91V83.5H47.5V28.5H42.5V11H41.5V21.5H40.5V11L39.5 21L35 11.5V21.5L34 11.5L33.5 21L30 19.5C29.8265 13.7593 28 12 25 12C22 12 21 15 21 17C21 19 23.5 21 25 21C26.5 21 41.5 28.5 41.5 28.5H16.5V83.5H40V82.5H17.5V29.5H46.5V82.5H41V81.5H18.5V30.5H45.5V81.5H42V80.5H44.5V31.5H19.5V80.5H41V53V35H23V53H40V36H24V52H39V37H25V51H38V38" stroke="currentColor"/>
</svg>
    