<svg width="16" height="16" viewBox="0 0 16 16" fill="none" xmlns="http://www.w3.org/2000/svg">
    <circle cx="8" cy="8" r="8" fill="#D9D9D9"/>
    <path d="M8.74483 3.88571C8.69885 5.48571 8.64828 8.2 8.5931 12.0286L9.75172 12.1429C9.75172 12.4095 9.67356 12.6952 9.51724 13H6.34483L6.30345 12.5C6.83678 12.3 7.25977 12.1857 7.57241 12.1571C7.48046 8.48095 7.4069 5.72381 7.35172 3.88571H5.33793L5.0069 5.34286L4.2069 5.28571C4.06897 4.70476 4 4.11429 4 3.51429C4 3.4 4.0092 3.22857 4.02759 3H11.9724C11.9908 3.12381 12 3.31429 12 3.57143C12 4.08571 11.9356 4.64762 11.8069 5.25714C11.6046 5.31429 11.3379 5.34286 11.0069 5.34286L10.6621 3.88571H8.74483Z" fill="#333333"/>
</svg>
    